<?xml version="1.0" encoding="utf-8"?>
<svg version="1.2" baseProfile="tiny-ps" xmlns="http://www.w3.org/2000/svg" xmlns:xlink="http://www.w3.org/1999/xlink" viewBox="0 0 512 512">
    <defs>
        <style>.a{fill:#fff;}.b{fill:#e64c4c;}</style>
    </defs>
    <title>jc-logo</title>
    <rect width="512" height="512"/>
    <polygon class="a" points="480 32 416 32 416 96 384 96 384 32 320 32 320 96 288 96 288 32 32 32 32 480 96 480 96 192 192 192 192 96 224 96 224 416 480 416 480 256 320 256 320 320 448 320 448 352 288 352 288 160 480 160 480 32"/>
    <rect class="a" x="352" y="448" width="32" height="32"/>
    <rect x="96" y="96" width="32" height="32"/>
    <rect class="b" x="320" y="192" width="160" height="32"/>
    <rect class="b" x="416" y="448" width="64" height="32"/>
    <polygon class="b" points="192 448 192 224 128 224 128 480 320 480 320 448 192 448"/>
</svg>
